<?xml version="1.0" standalone="no"?>
<!DOCTYPE svg PUBLIC "-//W3C//DTD SVG 20010904//EN"
 "http://www.w3.org/TR/2001/REC-SVG-20010904/DTD/svg10.dtd">
<svg version="1.0" xmlns="http://www.w3.org/2000/svg"
 width="200.000000pt" height="200.000000pt" viewBox="0 0 200.000000 200.000000"
 preserveAspectRatio="xMidYMid meet">

<g transform="translate(0.000000,200.000000) scale(0.100000,-0.100000)"
fill="#000000" stroke="none">
<path d="M300 1185 c0 -22 4 -26 23 -23 14 2 22 10 22 23 0 13 -8 21 -22 23
-19 3 -23 -1 -23 -23z"/>
<path d="M1672 1188 c2 -15 10 -23 23 -23 13 0 21 8 23 23 3 18 -1 22 -23 22
-22 0 -26 -4 -23 -22z"/>
<path d="M960 1157 c0 -43 0 -43 -34 -39 -30 3 -34 1 -45 -29 -15 -43 -14
-148 2 -179 14 -28 51 -38 73 -20 10 9 14 9 14 1 0 -6 9 -11 20 -11 19 0 20 7
20 160 l0 160 -25 0 c-23 0 -25 -4 -25 -43z m-2 -154 c-2 -70 -6 -88 -18 -88
-12 0 -16 18 -18 88 -3 82 -2 87 18 87 20 0 21 -5 18 -87z"/>
<path d="M110 1030 c0 -143 1 -150 20 -150 18 0 20 7 20 55 0 30 4 55 9 55 5
0 18 -24 29 -52 14 -38 26 -54 41 -56 26 -4 26 4 2 61 -19 45 -19 46 0 84 14
27 19 50 15 78 -6 52 -35 75 -92 75 l-44 0 0 -150z m78 108 c20 -20 15 -96 -7
-107 -26 -15 -31 -5 -31 61 0 59 11 73 38 46z"/>
<path d="M1336 1158 c-12 -17 -16 -49 -16 -128 0 -128 10 -150 70 -150 61 0
75 29 75 156 0 86 -3 105 -19 123 -27 30 -89 29 -110 -1z m72 -20 c8 -8 12
-46 12 -104 0 -100 -5 -124 -26 -124 -24 0 -34 37 -34 120 0 102 17 139 48
108z"/>
<path d="M300 1000 c0 -113 1 -120 20 -120 19 0 20 7 20 120 0 113 -1 120 -20
120 -19 0 -20 -7 -20 -120z"/>
<path d="M409 1104 c-21 -26 -25 -154 -5 -193 13 -25 23 -31 49 -31 39 0 57
15 57 47 0 29 -26 31 -35 2 -19 -59 -52 36 -41 115 8 49 29 62 41 26 11 -34
37 -25 33 13 -3 30 -6 32 -44 35 -29 2 -45 -2 -55 -14z"/>
<path d="M561 1101 c-6 -11 -11 -27 -11 -35 0 -23 37 -20 43 4 9 35 37 24 37
-14 0 -28 -5 -36 -30 -46 -36 -15 -50 -37 -50 -78 0 -40 16 -50 78 -50 l52 0
-1 92 c-1 132 -5 140 -61 144 -38 2 -49 -1 -57 -17z m69 -152 c0 -33 -3 -40
-17 -37 -22 4 -29 44 -13 64 21 24 30 16 30 -27z"/>
<path d="M730 999 c0 -112 1 -119 20 -119 18 0 20 8 22 102 2 73 7 103 16 106
7 2 16 -5 19 -17 9 -35 35 -26 31 12 -3 31 -4 32 -55 33 l-53 2 0 -119z"/>
<path d="M1071 1101 c-6 -11 -11 -58 -11 -104 0 -95 13 -117 69 -117 27 0 34
5 47 35 17 42 18 141 1 175 -17 34 -90 42 -106 11z m75 -57 c11 -76 -8 -146
-35 -130 -12 8 -16 158 -4 169 18 18 32 3 39 -39z"/>
<path d="M1522 1108 c-24 -24 -13 -70 30 -125 30 -39 38 -57 30 -65 -16 -16
-42 -2 -42 22 0 11 -7 20 -15 20 -20 0 -20 -53 -1 -69 24 -20 79 -9 92 18 15
30 4 61 -36 108 -17 19 -30 43 -30 53 0 26 30 26 37 0 3 -11 12 -20 19 -20 17
0 19 41 2 58 -16 16 -70 16 -86 0z"/>
<path d="M1670 1000 c0 -113 1 -120 20 -120 19 0 20 7 20 120 0 113 -1 120
-20 120 -19 0 -20 -7 -20 -120z"/>
<path d="M1779 1099 c-18 -35 -22 -130 -7 -174 14 -42 36 -53 84 -41 41 11 59
131 30 201 -14 32 -19 35 -55 35 -31 0 -43 -5 -52 -21z m69 -96 c-2 -70 -6
-88 -18 -88 -12 0 -16 16 -18 74 -3 84 1 101 23 101 13 0 15 -13 13 -87z"/>
</g>
</svg>
